<svg xmlns="http://www.w3.org/2000/svg" width="137" height="42" viewBox="0 0 137 42" fill="none">
  <path d="M5.69802 41.5H5.69908H130.346C133.204 41.5 135.618 39.1545 135.618 36.267V5.726C135.618 2.83643 133.203 0.5 130.346 0.5L5.69908 0.5L5.69877 0.5C4.31994 0.500878 2.99843 1.05234 2.02404 2.03231C1.04976 3.01216 0.502035 4.34036 0.5 5.72527V5.726L0.499999 36.267L0.500001 36.2677C0.50203 37.6532 1.04944 38.982 2.02336 39.9629C2.99739 40.944 4.31868 41.4971 5.69802 41.5Z" stroke="#0B0C0E"/>
  <path fill-rule="evenodd" clip-rule="evenodd" d="M31.0979 20.0018C31.0682 16.885 33.7097 15.3696 33.8294 15.298C32.335 13.1676 30.0172 12.8765 29.2027 12.8533C27.256 12.6531 25.3677 13.9916 24.3761 13.9916C23.3646 13.9916 21.8376 12.8727 20.1917 12.9055C18.0738 12.9375 16.0925 14.1356 15.0059 15.9963C12.7633 19.7901 14.4358 25.3652 16.5844 28.4327C17.6592 29.9336 18.9151 31.6104 20.5589 31.5505C22.1671 31.4867 22.7679 30.5496 24.7086 30.5496C26.6315 30.5496 27.1957 31.5505 28.8722 31.5137C30.5981 31.4867 31.6848 30.0051 32.722 28.4888C33.964 26.7684 34.4628 25.0731 34.4826 24.9861C34.442 24.9725 31.1306 23.7386 31.0979 20.0018ZM27.931 10.836C28.796 9.77903 29.3878 8.34101 29.2235 6.88171C27.9716 6.93587 26.4059 7.72789 25.5043 8.76168C24.7066 9.67265 23.9941 11.1658 24.1781 12.57C25.5845 12.6725 27.0284 11.8766 27.931 10.836ZM50.5222 25.9696L49.4088 22.609C49.2901 22.2657 49.0704 21.4582 48.7448 20.1846H48.7052C48.5078 20.9954 48.2992 21.8037 48.0797 22.609L46.9861 25.9696H50.5222ZM54.372 31.3368H52.1245L50.8933 27.5556H46.614L45.4412 31.3368H43.2531L47.4928 18.4661H50.1115L54.372 31.3358V31.3368ZM63.1257 26.6572C63.1257 25.7539 62.9179 25.0093 62.5002 24.4232C62.045 23.8121 61.4314 23.5065 60.6634 23.5065C60.1428 23.5065 59.6698 23.6767 59.2482 24.0122C58.8236 24.3507 58.5465 24.7927 58.4168 25.34C58.3515 25.5953 58.3189 25.8042 58.3189 25.9686V27.5159C58.3189 28.1909 58.5306 28.7605 58.9542 29.2257C59.3778 29.6908 59.9281 29.9229 60.605 29.9229C61.3997 29.9229 62.0183 29.6231 62.4606 29.0255C62.904 28.4269 63.1257 27.6378 63.1257 26.6572ZM65.2753 26.5817C65.2753 28.16 64.8398 29.4075 63.9659 30.3233C63.1841 31.1385 62.2142 31.5457 61.0543 31.5457C59.8034 31.5457 58.9047 31.1066 58.3575 30.2285H58.3179V35.117H56.2079V25.1108C56.2079 24.1186 56.1812 23.1003 56.1297 22.0559H57.9853L58.1041 23.5268H58.1437C58.8464 22.4185 59.9152 21.8654 61.3473 21.8654C62.4676 21.8654 63.4028 22.2976 64.151 23.1632C64.9012 24.0296 65.2753 25.1688 65.2753 26.5817ZM74.0487 26.6572C74.0487 25.7539 73.8409 25.0093 73.4212 24.4232C72.966 23.8121 72.3554 23.5065 71.5864 23.5065C71.0639 23.5065 70.5928 23.6767 70.1692 24.0122C69.7446 24.3507 69.4695 24.7927 69.3389 25.34C69.2755 25.5953 69.2419 25.8042 69.2419 25.9686V27.5159C69.2419 28.1909 69.4527 28.7605 69.8753 29.2257C70.2988 29.6899 70.8491 29.9229 71.528 29.9229C72.3227 29.9229 72.9413 29.6231 73.3836 29.0255C73.826 28.4269 74.0487 27.6378 74.0487 26.6572ZM76.1983 26.5817C76.1983 28.16 75.7608 29.4075 74.8879 30.3233C74.1071 31.1385 73.1362 31.5457 71.9763 31.5457C70.7264 31.5457 69.8268 31.1066 69.2815 30.2285H69.2419V35.117H67.1319V25.1108C67.1319 24.1186 67.1052 23.1003 67.0537 22.0559H68.9093L69.0281 23.5268H69.0677C69.7704 22.4185 70.8372 21.8654 72.2713 21.8654C73.3906 21.8654 74.3248 22.2976 75.076 23.1632C75.8232 24.0296 76.1983 25.1688 76.1983 26.5817ZM88.4118 27.7277C88.4118 28.8214 88.0219 29.7131 87.241 30.4007C86.383 31.1521 85.1885 31.5273 83.6535 31.5273C82.2363 31.5273 81.1001 31.2584 80.2401 30.7246L80.729 29.0061C81.6476 29.5522 82.704 29.8369 83.7792 29.8281C84.5739 29.8281 85.1924 29.6512 85.6368 29.3021C86.0792 28.953 86.2999 28.481 86.2999 27.8969C86.2999 27.3747 86.1178 26.9347 85.7516 26.5779C85.3894 26.22 84.7827 25.8893 83.9355 25.5818C81.6296 24.7404 80.4776 23.5113 80.4776 21.8915C80.4776 20.8345 80.8814 19.967 81.69 19.2901C82.4946 18.616 83.5703 18.2785 84.9143 18.2785C86.1128 18.2785 87.1084 18.4816 87.9031 18.8878L87.3756 20.5705C86.6334 20.174 85.7931 19.9777 84.8549 19.9777C84.1127 19.9777 83.5327 20.1556 83.1171 20.5124C82.9486 20.658 82.8143 20.8374 82.7233 21.0384C82.6323 21.2393 82.5866 21.4571 82.5896 21.6768C82.5896 22.1874 82.7905 22.6071 83.1943 22.9388C83.5456 23.2425 84.1839 23.5732 85.1103 23.93C86.2434 24.3768 87.0758 24.8971 87.6112 25.4957C88.1436 26.0914 88.4108 26.837 88.4108 27.7277M95.387 23.6032H93.0613V28.1087C93.0613 29.2547 93.471 29.8281 94.2934 29.8281C94.6695 29.8281 94.9823 29.7953 95.2297 29.7314L95.2881 31.2971C94.8724 31.4489 94.3251 31.5253 93.6472 31.5253C92.8139 31.5253 92.1627 31.2778 91.6936 30.7807C91.2245 30.2836 90.9889 29.45 90.9889 28.2789V23.6012H89.6034V22.0539H90.9889V20.3548L93.0613 19.7436V22.0539H95.387V23.6032ZM103.69 26.6862C103.69 25.8293 103.504 25.0954 103.126 24.4842C102.683 23.7434 102.05 23.374 101.231 23.374C100.382 23.374 99.7396 23.7444 99.2972 24.4842C98.9182 25.0963 98.7301 25.8429 98.7301 26.7248C98.7301 27.5807 98.9182 28.3147 99.2972 28.9249C99.7525 29.6666 100.389 30.037 101.211 30.037C102.019 30.037 102.65 29.6579 103.106 28.9065C103.495 28.2818 103.69 27.541 103.69 26.6862ZM105.882 26.6194C105.882 28.0449 105.463 29.217 104.63 30.1318C103.755 31.0757 102.596 31.5447 101.15 31.5447C99.7554 31.5447 98.646 31.094 97.8196 30.1908C96.9913 29.2866 96.5776 28.1474 96.5776 26.7732C96.5776 25.3352 97.0032 24.1573 97.8582 23.2405C98.7113 22.3238 99.8613 21.8673 101.307 21.8673C102.7 21.8673 103.821 22.317 104.667 23.2222C105.478 24.0993 105.882 25.2317 105.882 26.6194ZM112.739 23.8691C112.52 23.8301 112.297 23.8106 112.074 23.8111C111.332 23.8111 110.758 24.0857 110.354 24.6341C110.003 25.1176 109.826 25.7288 109.826 26.4666V31.3358H107.718L107.738 24.9774C107.738 23.9088 107.71 22.9349 107.659 22.0568H109.496L109.573 23.8324H109.632C109.854 23.2231 110.204 22.7309 110.686 22.3624C111.127 22.0408 111.662 21.8665 112.211 21.8654C112.406 21.8654 112.583 21.8779 112.739 21.904V23.8691ZM120.163 25.723C120.177 25.1108 120.04 24.5828 119.754 24.137C119.389 23.5635 118.827 23.2773 118.072 23.2773C117.382 23.2773 116.821 23.5577 116.393 24.1186C116.041 24.5635 115.833 25.0973 115.768 25.721H120.163V25.722V25.723ZM122.175 26.2568C122.181 26.5702 122.155 26.8834 122.098 27.1919H115.768C115.793 28.1087 116.099 28.8089 116.687 29.2924C117.22 29.7256 117.91 29.9423 118.757 29.9423C119.694 29.9423 120.549 29.7972 121.318 29.5032L121.649 30.9345C120.75 31.3174 119.689 31.507 118.465 31.507C116.993 31.507 115.837 31.0844 114.995 30.2382C114.156 29.392 113.736 28.2557 113.736 26.8303C113.736 25.4309 114.126 24.2656 114.909 23.3363C115.729 22.3441 116.836 21.848 118.23 21.848C119.598 21.848 120.635 22.3441 121.338 23.3372C121.895 24.1244 122.175 25.0983 122.175 26.2578V26.2568ZM48.7309 10.5769C48.7309 9.83899 48.531 9.27326 48.1312 8.8787C47.7313 8.4851 47.1474 8.28879 46.3785 8.28879C46.0519 8.28879 45.7738 8.3091 45.5432 8.35358V13.0825C45.6708 13.1019 45.9044 13.1096 46.2439 13.1096C47.0376 13.1096 47.6492 12.8939 48.0817 12.4626C48.5132 12.0313 48.7309 11.4027 48.7309 10.5769ZM49.8245 10.5488C49.8245 11.687 49.4751 12.5439 48.7774 13.1193C48.1312 13.6511 47.2128 13.9161 46.0232 13.9161C45.4333 13.9161 44.9286 13.891 44.506 13.8407V7.62248C45.0573 7.53545 45.6511 7.49 46.2924 7.49C47.4255 7.49 48.2796 7.73176 48.8556 8.21239C49.5009 8.75685 49.8245 9.53533 49.8245 10.5488ZM54.5472 11.5749C54.5472 11.1552 54.4542 10.7944 54.2691 10.4937C54.0514 10.1301 53.7416 9.94827 53.3388 9.94827C52.9222 9.94827 52.6055 10.1301 52.3878 10.4937C52.2017 10.7935 52.1097 11.161 52.1097 11.5942C52.1097 12.0149 52.2027 12.3756 52.3868 12.6763C52.6124 13.04 52.9251 13.2218 53.3289 13.2218C53.7248 13.2218 54.0356 13.0371 54.2592 12.6667C54.4512 12.3601 54.5462 11.9965 54.5462 11.5758M55.623 11.543C55.623 12.2441 55.4181 12.8185 55.0084 13.2692C54.5789 13.7324 54.0088 13.9635 53.2992 13.9635C52.6144 13.9635 52.0691 13.7411 51.6623 13.2962C51.2566 12.8533 51.0537 12.2934 51.0537 11.6184C51.0537 10.9124 51.2615 10.3322 51.6821 9.88347C52.1017 9.43379 52.6659 9.20846 53.3764 9.20846C54.0613 9.20846 54.6115 9.42992 55.0282 9.8738C55.4241 10.3051 55.622 10.8621 55.622 11.543M63.3979 9.30227L61.9381 13.86H60.988L60.3843 11.8805C60.2333 11.3961 60.1077 10.9045 60.0082 10.4076H59.9894C59.9 10.9066 59.7746 11.3987 59.6143 11.8805L58.972 13.86H58.0121L56.6374 9.30227H57.7033L58.2308 11.4695C58.3594 11.982 58.4633 12.4704 58.5475 12.9326H58.5673C58.6435 12.5516 58.7711 12.0661 58.9513 11.4791L59.6143 9.30324H60.4585L61.0929 11.4327C61.2463 11.952 61.371 12.452 61.467 12.9336H61.4967C61.566 12.4646 61.6719 11.9646 61.8134 11.4327L62.3785 9.30324H63.3979V9.30227ZM68.7747 13.86H67.7376V11.249C67.7376 10.4444 67.4248 10.0421 66.7974 10.0421C66.6549 10.038 66.5133 10.0657 66.3835 10.1232C66.2537 10.1807 66.139 10.2664 66.0482 10.3738C65.8586 10.5915 65.7565 10.8693 65.7612 11.1552V13.8591H64.723V10.6039C64.723 10.2036 64.7102 9.76936 64.6854 9.29937H65.5969L65.6464 10.0121H65.6741C65.7948 9.79064 65.975 9.60786 66.2115 9.46183C66.4926 9.29163 66.8073 9.20556 67.1517 9.20556C67.5871 9.20556 67.9494 9.34289 68.2373 9.6185C68.5946 9.95697 68.7747 10.4598 68.7747 11.129V13.86Z" fill="#0B0C0E"/>
  <path fill-rule="evenodd" clip-rule="evenodd" d="M70.5991 13.8618H71.6353V7.2113H70.5991V13.8618ZM76.6648 11.5766C76.6648 11.1569 76.5718 10.7962 76.3867 10.4954C76.169 10.1318 75.8602 9.95002 75.4564 9.95002C75.0398 9.95002 74.7231 10.1318 74.5063 10.4954C74.3203 10.7952 74.2282 11.1627 74.2282 11.596C74.2282 12.0166 74.3212 12.3773 74.5053 12.6781C74.731 13.0417 75.0437 13.2235 75.4485 13.2235C75.8434 13.2235 76.1531 13.0388 76.3768 12.6684C76.5698 12.3619 76.6638 11.9983 76.6638 11.5776M77.7416 11.5447C77.7416 12.2458 77.5367 12.8203 77.127 13.2709C76.6975 13.7341 76.1274 13.9653 75.4178 13.9653C74.732 13.9653 74.1867 13.7428 73.7809 13.298C73.3751 12.8551 73.1722 12.2951 73.1722 11.6201C73.1722 10.9142 73.3801 10.3339 73.8007 9.88523C74.2203 9.43555 74.7844 9.21022 75.493 9.21022C76.1799 9.21022 76.7291 9.43168 77.1458 9.87556C77.5416 10.3069 77.7416 10.8639 77.7416 11.5447ZM81.6844 12.2951V11.5921C80.5403 11.5728 79.9683 11.8793 79.9683 12.5108C79.9683 12.7487 80.0336 12.9266 80.1672 13.0456C80.3064 13.1664 80.4879 13.2301 80.674 13.2235C80.9016 13.2235 81.1144 13.1529 81.3083 13.0127C81.4261 12.9321 81.522 12.8246 81.5876 12.6996C81.6531 12.5745 81.6864 12.4356 81.6844 12.2951ZM82.7612 13.8618H81.8289L81.7517 13.3367H81.724C81.4053 13.7554 80.9521 13.9653 80.3612 13.9653C79.9208 13.9653 79.5635 13.827 79.2963 13.5523C79.1758 13.4287 79.0816 13.2831 79.0189 13.1238C78.9562 12.9644 78.9264 12.7946 78.9311 12.6239C78.9311 12.0669 79.1687 11.6424 79.6457 11.3484C80.1237 11.0544 80.7947 10.9103 81.6587 10.9171V10.832C81.6587 10.2314 81.3351 9.93165 80.6898 9.93165C80.2296 9.93165 79.8238 10.0448 79.4735 10.2692L79.2627 9.60381C79.6962 9.34174 80.2326 9.21022 80.863 9.21022C82.0813 9.21022 82.6939 9.83881 82.6939 11.096V12.7748C82.6939 13.2303 82.7166 13.5929 82.7612 13.8618ZM87.5809 11.9393V11.1792C87.5906 11.0038 87.5593 10.8287 87.4893 10.667C87.4194 10.5053 87.3126 10.3613 87.1771 10.2459C86.9854 10.0812 86.7376 9.9925 86.4823 9.99741C86.0964 9.99741 85.7915 10.1473 85.5699 10.4481C85.3492 10.7478 85.2373 11.1327 85.2373 11.6018C85.2373 12.0524 85.3432 12.418 85.556 12.6994C85.7807 12.9992 86.0825 13.1491 86.4625 13.1491C86.803 13.1491 87.0761 13.0233 87.282 12.7738C87.4809 12.5417 87.5799 12.2642 87.5799 11.9393M88.6547 13.8618H87.7343L87.6848 13.1297H87.6571C87.3631 13.6867 86.8614 13.9653 86.1577 13.9653C85.5966 13.9653 85.1285 13.7496 84.7564 13.3173C84.3852 12.887 84.2021 12.3271 84.2021 11.6395C84.2021 10.9016 84.4021 10.304 84.8058 9.84751C85.1968 9.42201 85.6767 9.20925 86.2448 9.20925C86.8723 9.20925 87.3107 9.41524 87.5591 9.82817H87.5799V7.2113H88.619V12.6336C88.619 13.0775 88.6299 13.4866 88.6547 13.8618ZM96.4503 11.5766C96.4503 11.1569 96.3573 10.7962 96.1732 10.4954C95.9535 10.1318 95.6447 9.95002 95.2409 9.95002C94.8253 9.95002 94.5086 10.1318 94.2889 10.4954C94.1038 10.7952 94.0118 11.1627 94.0118 11.596C94.0118 12.0166 94.1048 12.3773 94.2889 12.6781C94.5145 13.0417 94.8273 13.2235 95.231 13.2235C95.6269 13.2235 95.9377 13.0388 96.1623 12.6684C96.3533 12.3619 96.4503 11.9983 96.4503 11.5776M97.5251 11.5447C97.5251 12.2458 97.3202 12.8203 96.9115 13.2709C96.481 13.7341 95.9129 13.9653 95.2014 13.9653C94.5185 13.9653 93.9722 13.7428 93.5644 13.298C93.1587 12.8551 92.9558 12.2951 92.9558 11.6201C92.9558 10.9142 93.1646 10.3339 93.5842 9.88523C94.0038 9.43555 94.568 9.21022 95.2785 9.21022C95.9634 9.21022 96.5137 9.43168 96.9313 9.87556C97.3272 10.3069 97.5251 10.8639 97.5251 11.5447ZM103.102 13.8618H102.066V11.2507C102.066 10.4461 101.753 10.0438 101.125 10.0438C100.982 10.0396 100.841 10.0673 100.711 10.1248C100.581 10.1823 100.467 10.2681 100.376 10.3755C100.186 10.5929 100.084 10.8708 100.088 11.1569V13.8608H99.0492V10.6057C99.0492 10.2053 99.0393 9.77112 99.0136 9.30112H99.9241L99.9726 10.0138H100.001C100.128 9.7878 100.314 9.59812 100.539 9.46359C100.821 9.29339 101.134 9.20732 101.479 9.20732C101.914 9.20732 102.277 9.34464 102.565 9.62025C102.924 9.95873 103.102 10.4616 103.102 11.1308V13.8618ZM110.082 10.0622H108.94V12.2768C108.94 12.8396 109.144 13.121 109.544 13.121C109.732 13.121 109.886 13.1055 110.008 13.0727L110.033 13.8424C109.829 13.9179 109.561 13.9556 109.228 13.9556C108.819 13.9556 108.5 13.8337 108.268 13.59C108.038 13.3463 107.922 12.9363 107.922 12.3609V10.0622H107.241V9.30306H107.923V8.46752L108.939 8.16773V9.30209H110.08V10.0622H110.082ZM115.573 13.8618H114.534V11.2701C114.534 10.4529 114.222 10.0438 113.595 10.0438C113.114 10.0438 112.786 10.2808 112.606 10.7546C112.576 10.8542 112.556 10.977 112.556 11.1192V13.8608H111.52V7.2113H112.556V9.95873H112.577C112.904 9.45875 113.371 9.20925 113.978 9.20925C114.407 9.20925 114.763 9.34658 115.045 9.62219C115.396 9.96549 115.573 10.4761 115.573 11.1511V13.8618ZM120.247 11.1047C120.261 10.8314 120.191 10.5601 120.046 10.3262C119.866 10.0448 119.592 9.9036 119.221 9.9036C119.059 9.90091 118.899 9.93718 118.755 10.0092C118.611 10.0812 118.488 10.1868 118.395 10.3165C118.219 10.546 118.113 10.819 118.088 11.1047H120.247ZM121.237 11.3668C121.237 11.5486 121.223 11.7014 121.198 11.8261H118.088C118.101 12.2768 118.25 12.6201 118.538 12.858C118.801 13.0707 119.141 13.1771 119.556 13.1771C120.016 13.1771 120.436 13.1055 120.814 12.9615L120.976 13.6655C120.534 13.8531 120.013 13.9469 119.411 13.9469C118.688 13.9469 118.119 13.739 117.707 13.3231C117.294 12.9073 117.089 12.3493 117.089 11.6491C117.089 10.9616 117.28 10.3891 117.665 9.93261C118.067 9.44522 118.61 9.20152 119.296 9.20152C119.967 9.20152 120.477 9.44522 120.821 9.93261C121.099 10.3194 121.237 10.7981 121.237 11.3668Z" fill="#0B0C0E"/>
</svg>