<svg xmlns="http://www.w3.org/2000/svg" width="116" height="36" viewBox="0 0 116 36" fill="none">
  <path d="M5.22222 35.5H110.778C113.379 35.5 115.5 33.3605 115.5 30.75V5.25C115.5 2.63945 113.379 0.5 110.778 0.5H5.22222C2.62077 0.5 0.5 2.63945 0.5 5.25V30.75C0.5 33.3605 2.62077 35.5 5.22222 35.5Z" fill="white" stroke="#CDCDCD"/>
  <mask id="path-2-inside-1_1_19152" fill="white">
    <path fill-rule="evenodd" clip-rule="evenodd" d="M40.6772 9.35457C40.6772 10.0629 40.4674 10.6267 40.0469 11.0477C39.569 11.5481 38.9472 11.7983 38.1825 11.7983C37.4499 11.7983 36.8264 11.5447 36.3146 11.0376C35.8011 10.5304 35.5456 9.89978 35.5456 9.14916C35.5456 8.39769 35.8011 7.76879 36.3154 7.26077C36.8264 6.75359 37.4499 6.5 38.1825 6.5C38.5462 6.5 38.8939 6.571 39.2238 6.71217C39.5546 6.85418 39.8194 7.04268 40.019 7.27852L39.5715 7.72483C39.2357 7.32416 38.7729 7.12298 38.1825 7.12298C37.6478 7.12298 37.1859 7.31064 36.7959 7.68595C36.4068 8.06211 36.2122 8.549 36.2122 9.14916C36.2122 9.74932 36.4068 10.2362 36.7959 10.6115C36.9779 10.7931 37.1944 10.9365 37.4327 11.0332C37.6709 11.1298 37.9262 11.1779 38.1833 11.1745C38.7501 11.1745 39.2213 10.986 39.6003 10.6081C39.8456 10.363 39.9877 10.0207 40.0249 9.58111H38.1833V8.97249H40.6425C40.6662 9.10436 40.678 9.23115 40.678 9.35457"/>
  </mask>
  <path fill-rule="evenodd" clip-rule="evenodd" d="M40.6772 9.35457C40.6772 10.0629 40.4674 10.6267 40.0469 11.0477C39.569 11.5481 38.9472 11.7983 38.1825 11.7983C37.4499 11.7983 36.8264 11.5447 36.3146 11.0376C35.8011 10.5304 35.5456 9.89978 35.5456 9.14916C35.5456 8.39769 35.8011 7.76879 36.3154 7.26077C36.8264 6.75359 37.4499 6.5 38.1825 6.5C38.5462 6.5 38.8939 6.571 39.2238 6.71217C39.5546 6.85418 39.8194 7.04268 40.019 7.27852L39.5715 7.72483C39.2357 7.32416 38.7729 7.12298 38.1825 7.12298C37.6478 7.12298 37.1859 7.31064 36.7959 7.68595C36.4068 8.06211 36.2122 8.549 36.2122 9.14916C36.2122 9.74932 36.4068 10.2362 36.7959 10.6115C36.9779 10.7931 37.1944 10.9365 37.4327 11.0332C37.6709 11.1298 37.9262 11.1779 38.1833 11.1745C38.7501 11.1745 39.2213 10.986 39.6003 10.6081C39.8456 10.363 39.9877 10.0207 40.0249 9.58111H38.1833V8.97249H40.6425C40.6662 9.10436 40.678 9.23115 40.678 9.35457" fill="#0B0C0E"/>
  <path d="M40.0469 11.0477L39.3394 10.341L39.3315 10.3489L39.3238 10.357L40.0469 11.0477ZM36.3146 11.0376L37.0185 10.3272L37.0173 10.3261L36.3146 11.0376ZM36.3154 7.26077L37.0182 7.97223L37.0199 7.97049L36.3154 7.26077ZM39.2238 6.71217L39.6183 5.79328L39.6172 5.79279L39.2238 6.71217ZM40.019 7.27852L40.7252 7.98657L41.3777 7.33579L40.7823 6.63241L40.019 7.27852ZM39.5715 7.72483L38.8051 8.36722L39.5056 9.2029L40.2777 8.43289L39.5715 7.72483ZM36.7959 7.68595L36.1025 6.96542L36.1009 6.96695L36.7959 7.68595ZM36.7959 10.6115L37.5023 9.9037L37.4963 9.89767L37.4901 9.89174L36.7959 10.6115ZM38.1833 11.1745V10.1744L38.17 10.1746L38.1833 11.1745ZM39.6003 10.6081L40.3063 11.3163L40.3071 11.3155L39.6003 10.6081ZM40.0249 9.58111L41.0214 9.66549L41.1132 8.58111H40.0249V9.58111ZM38.1833 9.58111H37.1833V10.5811H38.1833V9.58111ZM38.1833 8.97249V7.97249H37.1833V8.97249H38.1833ZM40.6425 8.97249L41.6267 8.7957L41.4789 7.97249H40.6425V8.97249ZM39.6772 9.35457C39.6772 9.85224 39.5374 10.1428 39.3394 10.341L40.7545 11.7544C41.3974 11.1107 41.6772 10.2736 41.6772 9.35457H39.6772ZM39.3238 10.357C39.0555 10.6379 38.7059 10.7983 38.1825 10.7983V12.7983C39.1885 12.7983 40.0825 12.4583 40.7701 11.7384L39.3238 10.357ZM38.1825 10.7983C37.708 10.7983 37.3392 10.645 37.0185 10.3272L35.6107 11.7479C36.3136 12.4444 37.1917 12.7983 38.1825 12.7983V10.7983ZM37.0173 10.3261C36.7037 10.0164 36.5456 9.64635 36.5456 9.14916H34.5456C34.5456 10.1532 34.8985 11.0444 35.6119 11.749L37.0173 10.3261ZM36.5456 9.14916C36.5456 8.6519 36.7032 8.28333 37.0182 7.97223L35.6127 6.5493C34.899 7.25425 34.5456 8.14348 34.5456 9.14916H36.5456ZM37.0199 7.97049C37.3394 7.65336 37.7079 7.5 38.1825 7.5V5.5C37.1918 5.5 36.3134 5.85382 35.611 6.55104L37.0199 7.97049ZM38.1825 7.5C38.4124 7.5 38.6262 7.54414 38.8305 7.63155L39.6172 5.79279C39.1616 5.59787 38.68 5.5 38.1825 5.5V7.5ZM38.8293 7.63106C39.0414 7.7221 39.1717 7.82526 39.2558 7.92463L40.7823 6.63241C40.4671 6.2601 40.0678 5.98626 39.6183 5.79328L38.8293 7.63106ZM39.3129 6.57047L38.8654 7.01678L40.2777 8.43289L40.7252 7.98657L39.3129 6.57047ZM40.3379 7.08245C39.7869 6.42509 39.0272 6.12298 38.1825 6.12298V8.12298C38.5187 8.12298 38.6844 8.22323 38.8051 8.36722L40.3379 7.08245ZM38.1825 6.12298C37.3855 6.12298 36.6761 6.41344 36.1025 6.96542L37.4894 8.40648C37.6958 8.20784 37.9102 8.12298 38.1825 8.12298V6.12298ZM36.1009 6.96695C35.4951 7.55257 35.2122 8.30975 35.2122 9.14916H37.2122C37.2122 8.78825 37.3185 8.57165 37.4909 8.40495L36.1009 6.96695ZM35.2122 9.14916C35.2122 9.98833 35.495 10.7461 36.1017 11.3313L37.4901 9.89174C37.3186 9.72632 37.2122 9.51032 37.2122 9.14916H35.2122ZM36.0895 11.3193C36.366 11.5952 36.6948 11.8129 37.0567 11.9598L37.8087 10.1065C37.694 10.06 37.5898 9.99102 37.5023 9.9037L36.0895 11.3193ZM37.0567 11.9598C37.4185 12.1066 37.8061 12.1796 38.1966 12.1744L38.17 10.1746C38.0462 10.1762 37.9233 10.1531 37.8087 10.1065L37.0567 11.9598ZM38.1833 12.1745C38.9978 12.1745 39.7282 11.8927 40.3063 11.3163L38.8942 9.89997C38.7144 10.0793 38.5024 10.1745 38.1833 10.1745V12.1745ZM40.3071 11.3155C40.7599 10.8631 40.9696 10.2765 41.0214 9.66549L39.0285 9.49673C39.0058 9.76484 38.9313 9.86291 38.8934 9.90076L40.3071 11.3155ZM40.0249 8.58111H38.1833V10.5811H40.0249V8.58111ZM39.1833 9.58111V8.97249H37.1833V9.58111H39.1833ZM38.1833 9.97249H40.6425V7.97249H38.1833V9.97249ZM39.6582 9.14929C39.6724 9.22814 39.678 9.29562 39.678 9.35457H41.678C41.678 9.16669 41.66 8.98058 41.6267 8.7957L39.6582 9.14929Z" fill="#0B0C0E" mask="url(#path-2-inside-1_1_19152)"/>
  <path fill-rule="evenodd" clip-rule="evenodd" d="M40.6772 9.35457C40.6772 10.0629 40.4674 10.6267 40.0469 11.0477C39.569 11.5481 38.9472 11.7983 38.1825 11.7983C37.4499 11.7983 36.8264 11.5447 36.3146 11.0376C35.8011 10.5304 35.5456 9.89978 35.5456 9.14916C35.5456 8.39769 35.8011 7.76879 36.3154 7.26077C36.8264 6.75359 37.4499 6.5 38.1825 6.5C38.5462 6.5 38.8939 6.571 39.2238 6.71217C39.5546 6.85418 39.8194 7.04268 40.019 7.27852L39.5715 7.72483C39.2357 7.32416 38.7729 7.12298 38.1825 7.12298C37.6478 7.12298 37.1859 7.31064 36.7959 7.68595C36.4068 8.06211 36.2122 8.549 36.2122 9.14916C36.2122 9.74932 36.4068 10.2362 36.7959 10.6115C36.9779 10.7931 37.1944 10.9365 37.4327 11.0332C37.6709 11.1298 37.9262 11.1779 38.1833 11.1745C38.7501 11.1745 39.2213 10.986 39.6003 10.6081C39.8456 10.363 39.9877 10.0207 40.0249 9.58111H38.1833V8.97249H40.6425C40.6662 9.10436 40.678 9.23115 40.678 9.35457H40.6772Z" fill="#0B0C0E" stroke="#0B0C0E" stroke-width="0.2"/>
  <mask id="path-5-inside-2_1_19152" fill="white">
    <path fill-rule="evenodd" clip-rule="evenodd" d="M44.577 7.2348H42.2658V8.8434H44.3494V9.45286H42.2658V11.0606H44.577V11.6836H41.6136V6.61182H44.577V7.2348Z"/>
  </mask>
  <path fill-rule="evenodd" clip-rule="evenodd" d="M44.577 7.2348H42.2658V8.8434H44.3494V9.45286H42.2658V11.0606H44.577V11.6836H41.6136V6.61182H44.577V7.2348Z" fill="#0B0C0E"/>
  <path d="M44.577 7.2348V8.2348H45.577V7.2348H44.577ZM42.2658 7.2348V6.2348H41.2658V7.2348H42.2658ZM42.2658 8.8434H41.2658V9.8434H42.2658V8.8434ZM44.3494 8.8434H45.3494V7.8434H44.3494V8.8434ZM44.3494 9.45286V10.4529H45.3494V9.45286H44.3494ZM42.2658 9.45286V8.45286H41.2658V9.45286H42.2658ZM42.2658 11.0606H41.2658V12.0606H42.2658V11.0606ZM44.577 11.0606H45.577V10.0606H44.577V11.0606ZM44.577 11.6836V12.6836H45.577V11.6836H44.577ZM41.6136 11.6836H40.6136V12.6836H41.6136V11.6836ZM41.6136 6.61182V5.61182H40.6136V6.61182H41.6136ZM44.577 6.61182H45.577V5.61182H44.577V6.61182ZM44.577 6.2348H42.2658V8.2348H44.577V6.2348ZM41.2658 7.2348V8.8434H43.2658V7.2348H41.2658ZM42.2658 9.8434H44.3494V7.8434H42.2658V9.8434ZM43.3494 8.8434V9.45286H45.3494V8.8434H43.3494ZM44.3494 8.45286H42.2658V10.4529H44.3494V8.45286ZM41.2658 9.45286V11.0606H43.2658V9.45286H41.2658ZM42.2658 12.0606H44.577V10.0606H42.2658V12.0606ZM43.577 11.0606V11.6836H45.577V11.0606H43.577ZM44.577 10.6836H41.6136V12.6836H44.577V10.6836ZM42.6136 11.6836V6.61182H40.6136V11.6836H42.6136ZM41.6136 7.61182H44.577V5.61182H41.6136V7.61182ZM43.577 6.61182V7.2348H45.577V6.61182H43.577Z" fill="#0B0C0E" mask="url(#path-5-inside-2_1_19152)"/>
  <path fill-rule="evenodd" clip-rule="evenodd" d="M44.577 7.2348H42.2658V8.8434H44.3494V9.45286H42.2658V11.0606H44.577V11.6836H41.6136V6.61182H44.577V7.2348Z" fill="#0B0C0E" stroke="#0B0C0E" stroke-width="0.2"/>
  <mask id="path-8-inside-3_1_19152" fill="white">
    <path fill-rule="evenodd" clip-rule="evenodd" d="M47.3271 11.6836H46.6749V7.2348H45.2571V6.61182H48.745V7.2348H47.3271V11.6836Z"/>
  </mask>
  <path fill-rule="evenodd" clip-rule="evenodd" d="M47.3271 11.6836H46.6749V7.2348H45.2571V6.61182H48.745V7.2348H47.3271V11.6836Z" fill="#0B0C0E"/>
  <path d="M47.3271 11.6836V12.6836H48.3271V11.6836H47.3271ZM46.6749 11.6836H45.6749V12.6836H46.6749V11.6836ZM46.6749 7.2348H47.6749V6.2348H46.6749V7.2348ZM45.2571 7.2348H44.2571V8.2348H45.2571V7.2348ZM45.2571 6.61182V5.61182H44.2571V6.61182H45.2571ZM48.745 6.61182H49.745V5.61182H48.745V6.61182ZM48.745 7.2348V8.2348H49.745V7.2348H48.745ZM47.3271 7.2348V6.2348H46.3271V7.2348H47.3271ZM47.3271 10.6836H46.6749V12.6836H47.3271V10.6836ZM47.6749 11.6836V7.2348H45.6749V11.6836H47.6749ZM46.6749 6.2348H45.2571V8.2348H46.6749V6.2348ZM46.2571 7.2348V6.61182H44.2571V7.2348H46.2571ZM45.2571 7.61182H48.745V5.61182H45.2571V7.61182ZM47.745 6.61182V7.2348H49.745V6.61182H47.745ZM48.745 6.2348H47.3271V8.2348H48.745V6.2348ZM46.3271 7.2348V11.6836H48.3271V7.2348H46.3271Z" fill="#0B0C0E" mask="url(#path-8-inside-3_1_19152)"/>
  <path fill-rule="evenodd" clip-rule="evenodd" d="M47.3271 11.6836H46.6749V7.2348H45.2571V6.61182H48.745V7.2348H47.3271V11.6836Z" fill="#0B0C0E" stroke="#0B0C0E" stroke-width="0.2"/>
  <mask id="path-11-inside-4_1_19152" fill="white">
    <path fill-rule="evenodd" clip-rule="evenodd" d="M51.2683 11.6836H51.9205V6.61182H51.2683V11.6836Z"/>
  </mask>
  <path fill-rule="evenodd" clip-rule="evenodd" d="M51.2683 11.6836H51.9205V6.61182H51.2683V11.6836Z" fill="#0B0C0E"/>
  <path d="M51.2683 11.6836H50.2683V12.6836H51.2683V11.6836ZM51.9205 11.6836V12.6836H52.9205V11.6836H51.9205ZM51.9205 6.61182H52.9205V5.61182H51.9205V6.61182ZM51.2683 6.61182V5.61182H50.2683V6.61182H51.2683ZM51.2683 12.6836H51.9205V10.6836H51.2683V12.6836ZM52.9205 11.6836V6.61182H50.9205V11.6836H52.9205ZM51.9205 5.61182H51.2683V7.61182H51.9205V5.61182ZM50.2683 6.61182V11.6836H52.2683V6.61182H50.2683Z" fill="#0B0C0E" mask="url(#path-11-inside-4_1_19152)"/>
  <path fill-rule="evenodd" clip-rule="evenodd" d="M51.2683 11.6836H51.9205V6.61182H51.2683V11.6836Z" fill="#0B0C0E" stroke="#0B0C0E" stroke-width="0.2"/>
  <mask id="path-14-inside-5_1_19152" fill="white">
    <path fill-rule="evenodd" clip-rule="evenodd" d="M54.813 11.6836H54.1616V7.2348H52.7421V6.61182H56.2299V7.2348H54.8121L54.813 11.6836Z"/>
  </mask>
  <path fill-rule="evenodd" clip-rule="evenodd" d="M54.813 11.6836H54.1616V7.2348H52.7421V6.61182H56.2299V7.2348H54.8121L54.813 11.6836Z" fill="#0B0C0E"/>
  <path d="M54.813 11.6836V12.6836H55.8132L55.813 11.6834L54.813 11.6836ZM54.1616 11.6836H53.1616V12.6836H54.1616V11.6836ZM54.1616 7.2348H55.1616V6.2348H54.1616V7.2348ZM52.7421 7.2348H51.7421V8.2348H52.7421V7.2348ZM52.7421 6.61182V5.61182H51.7421V6.61182H52.7421ZM56.2299 6.61182H57.2299V5.61182H56.2299V6.61182ZM56.2299 7.2348V8.2348H57.2299V7.2348H56.2299ZM54.8121 7.2348V6.2348H53.8119L53.8121 7.23499L54.8121 7.2348ZM54.813 10.6836H54.1616V12.6836H54.813V10.6836ZM55.1616 11.6836V7.2348H53.1616V11.6836H55.1616ZM54.1616 6.2348H52.7421V8.2348H54.1616V6.2348ZM53.7421 7.2348V6.61182H51.7421V7.2348H53.7421ZM52.7421 7.61182H56.2299V5.61182H52.7421V7.61182ZM55.2299 6.61182V7.2348H57.2299V6.61182H55.2299ZM56.2299 6.2348H54.8121V8.2348H56.2299V6.2348ZM53.8121 7.23499L53.813 11.6838L55.813 11.6834L55.8121 7.23461L53.8121 7.23499Z" fill="#0B0C0E" mask="url(#path-14-inside-5_1_19152)"/>
  <path fill-rule="evenodd" clip-rule="evenodd" d="M54.813 11.6836H54.1616V7.2348H52.7421V6.61182H56.2299V7.2348H54.8121L54.813 11.6836Z" fill="#0B0C0E" stroke="#0B0C0E" stroke-width="0.2"/>
  <mask id="path-17-inside-6_1_19152" fill="white">
    <path fill-rule="evenodd" clip-rule="evenodd" d="M59.5943 10.6048C59.7723 10.7896 59.9868 10.9357 60.2241 11.0338C60.4614 11.1318 60.7164 11.1797 60.9732 11.1745C61.5154 11.1745 61.9756 10.9851 62.3521 10.6048C62.7268 10.2244 62.9155 9.73918 62.9155 9.14916C62.9155 8.55914 62.7268 8.0731 62.3512 7.69356C62.1731 7.50865 61.9587 7.36251 61.7214 7.26432C61.4841 7.16614 61.2291 7.11802 60.9723 7.12298C60.4284 7.12298 59.969 7.31318 59.5934 7.69356C59.2186 8.07394 59.03 8.55914 59.03 9.14916C59.03 9.73918 59.2186 10.2244 59.5934 10.6048M62.8334 11.0291C62.3343 11.5422 61.7142 11.7983 60.9723 11.7983C60.2304 11.7983 59.6103 11.5422 59.1121 11.0291C58.6129 10.5169 58.3642 9.89049 58.3642 9.14916C58.3642 8.40784 58.6129 7.78062 59.1121 7.26837C59.6112 6.75612 60.2304 6.5 60.9732 6.5C61.71 6.5 62.3284 6.75697 62.83 7.27176C63.3308 7.78739 63.5812 8.41291 63.5812 9.14916C63.5812 9.89049 63.3317 10.5169 62.8334 11.0291Z"/>
  </mask>
  <path fill-rule="evenodd" clip-rule="evenodd" d="M59.5943 10.6048C59.7723 10.7896 59.9868 10.9357 60.2241 11.0338C60.4614 11.1318 60.7164 11.1797 60.9732 11.1745C61.5154 11.1745 61.9756 10.9851 62.3521 10.6048C62.7268 10.2244 62.9155 9.73918 62.9155 9.14916C62.9155 8.55914 62.7268 8.0731 62.3512 7.69356C62.1731 7.50865 61.9587 7.36251 61.7214 7.26432C61.4841 7.16614 61.2291 7.11802 60.9723 7.12298C60.4284 7.12298 59.969 7.31318 59.5934 7.69356C59.2186 8.07394 59.03 8.55914 59.03 9.14916C59.03 9.73918 59.2186 10.2244 59.5934 10.6048M62.8334 11.0291C62.3343 11.5422 61.7142 11.7983 60.9723 11.7983C60.2304 11.7983 59.6103 11.5422 59.1121 11.0291C58.6129 10.5169 58.3642 9.89049 58.3642 9.14916C58.3642 8.40784 58.6129 7.78062 59.1121 7.26837C59.6112 6.75612 60.2304 6.5 60.9732 6.5C61.71 6.5 62.3284 6.75697 62.83 7.27176C63.3308 7.78739 63.5812 8.41291 63.5812 9.14916C63.5812 9.89049 63.3317 10.5169 62.8334 11.0291Z" fill="#0B0C0E"/>
  <path d="M60.9732 11.1745V10.1745H60.963L60.9528 10.1747L60.9732 11.1745ZM62.3521 10.6048L63.0628 11.3082L63.0644 11.3066L62.3521 10.6048ZM62.3512 7.69356L61.6309 8.38732L61.6404 8.39697L62.3512 7.69356ZM60.9723 7.12298V8.12298H60.982L60.9917 8.1228L60.9723 7.12298ZM59.5934 7.69356L58.8818 6.99094L58.8811 6.99174L59.5934 7.69356ZM62.8334 11.0291L63.5502 11.7264L63.5502 11.7264L62.8334 11.0291ZM59.1121 11.0291L59.8295 10.3324L59.8283 10.3312L59.1121 11.0291ZM62.83 7.27176L63.5474 6.57504L63.5462 6.57384L62.83 7.27176ZM58.874 11.2985C59.1478 11.5827 59.4774 11.8073 59.8422 11.958L60.6059 10.1095C60.4961 10.0641 60.3969 9.99655 60.3145 9.91105L58.874 11.2985ZM59.8422 11.958C60.207 12.1087 60.599 12.1823 60.9935 12.1743L60.9528 10.1747C60.8339 10.1771 60.7158 10.1549 60.6059 10.1095L59.8422 11.958ZM60.9732 12.1745C61.7768 12.1745 62.4947 11.8823 63.0628 11.3082L61.6413 9.90134C61.4566 10.088 61.254 10.1745 60.9732 10.1745V12.1745ZM63.0644 11.3066C63.6426 10.7198 63.9155 9.97336 63.9155 9.14916H61.9155C61.9155 9.50499 61.8111 9.72898 61.6397 9.90294L63.0644 11.3066ZM63.9155 9.14916C63.9155 8.32554 63.6429 7.57708 63.062 6.99015L61.6404 8.39697C61.8108 8.56911 61.9155 8.79275 61.9155 9.14916H63.9155ZM63.0715 6.99987C62.7978 6.71568 62.4683 6.49115 62.1038 6.3403L61.3391 8.18834C61.4491 8.23387 61.5485 8.30161 61.631 8.38725L63.0715 6.99987ZM62.1038 6.3403C61.7392 6.18946 61.3474 6.11554 60.953 6.12317L60.9917 8.1228C61.1108 8.12049 61.2291 8.14281 61.3391 8.18834L62.1038 6.3403ZM60.9723 6.12298C60.166 6.12298 59.4488 6.41672 58.8818 6.99094L60.305 8.39618C60.4892 8.20963 60.6907 8.12298 60.9723 8.12298V6.12298ZM58.8811 6.99174C58.3029 7.57855 58.03 8.32496 58.03 9.14916H60.03C60.03 8.79333 60.1344 8.56934 60.3058 8.39538L58.8811 6.99174ZM58.03 9.14916C58.03 9.97336 58.3029 10.7198 58.8811 11.3066L60.3058 9.90294C60.1344 9.72898 60.03 9.50499 60.03 9.14916H58.03ZM62.1166 10.3318C61.8135 10.6434 61.4555 10.7983 60.9723 10.7983V12.7983C61.9729 12.7983 62.8551 12.441 63.5502 11.7264L62.1166 10.3318ZM60.9723 10.7983C60.489 10.7983 60.1314 10.6434 59.8295 10.3324L58.3947 11.7258C59.0893 12.441 59.9718 12.7983 60.9723 12.7983V10.7983ZM59.8283 10.3312C59.5188 10.0136 59.3642 9.64104 59.3642 9.14916H57.3642C57.3642 10.1399 57.707 11.0201 58.3958 11.727L59.8283 10.3312ZM59.3642 9.14916C59.3642 8.65694 59.5191 8.2836 59.8283 7.96624L58.3958 6.57051C57.7068 7.27765 57.3642 8.15873 57.3642 9.14916H59.3642ZM59.8283 7.96624C60.1317 7.65487 60.4892 7.5 60.9732 7.5V5.5C59.9716 5.5 59.0907 5.85738 58.3958 6.57051L59.8283 7.96624ZM60.9732 7.5C61.448 7.5 61.8057 7.65347 62.1139 7.96967L63.5462 6.57384C62.851 5.86047 61.972 5.5 60.9732 5.5V7.5ZM62.1127 7.96848C62.4275 8.2926 62.5812 8.6662 62.5812 9.14916H64.5812C64.5812 8.15962 64.2342 7.28217 63.5474 6.57504L62.1127 7.96848ZM62.5812 9.14916C62.5812 9.64029 62.4263 10.0135 62.1166 10.3318L63.5502 11.7264C64.2371 11.0202 64.5812 10.1407 64.5812 9.14916H62.5812Z" fill="#0B0C0E" mask="url(#path-17-inside-6_1_19152)"/>
  <path fill-rule="evenodd" clip-rule="evenodd" d="M59.5943 10.6048C59.7723 10.7896 59.9868 10.9357 60.2241 11.0338C60.4614 11.1318 60.7164 11.1797 60.9732 11.1745C61.5154 11.1745 61.9756 10.9851 62.3521 10.6048C62.7268 10.2244 62.9155 9.73918 62.9155 9.14916C62.9155 8.55914 62.7268 8.0731 62.3512 7.69356C62.1731 7.50865 61.9587 7.36251 61.7214 7.26432C61.4841 7.16614 61.2291 7.11802 60.9723 7.12298C60.4284 7.12298 59.969 7.31318 59.5934 7.69356C59.2186 8.07394 59.03 8.55914 59.03 9.14916C59.03 9.73918 59.2186 10.2244 59.5934 10.6048H59.5943ZM62.8343 11.0291C62.3352 11.5422 61.7142 11.7983 60.9732 11.7983C60.2304 11.7983 59.6112 11.5422 59.1121 11.0291C58.6129 10.5169 58.3642 9.89049 58.3642 9.14916C58.3642 8.40784 58.6129 7.78062 59.1121 7.26837C59.6112 6.75612 60.2304 6.5 60.9732 6.5C61.71 6.5 62.3284 6.75697 62.83 7.27176C63.3308 7.78739 63.5812 8.41291 63.5812 9.14916C63.5812 9.89049 63.3317 10.5169 62.8334 11.0291H62.8343Z" fill="#0B0C0E" stroke="#0B0C0E" stroke-width="0.2"/>
  <mask id="path-20-inside-7_1_19152" fill="white">
    <path fill-rule="evenodd" clip-rule="evenodd" d="M64.4968 11.6836V6.61182H65.2903L67.7571 10.5568H67.7859L67.7571 9.57965V6.61266H68.4102V11.6844H67.7292L65.149 7.54671H65.1203L65.149 8.52472V11.6836H64.4968Z"/>
  </mask>
  <path fill-rule="evenodd" clip-rule="evenodd" d="M64.4968 11.6836V6.61182H65.2903L67.7571 10.5568H67.7859L67.7571 9.57965V6.61266H68.4102V11.6844H67.7292L65.149 7.54671H65.1203L65.149 8.52472V11.6836H64.4968Z" fill="#0B0C0E"/>
  <path d="M64.4968 11.6836H63.4968V12.6836H64.4968V11.6836ZM64.4968 6.61182V5.61182H63.4968V6.61182H64.4968ZM65.2903 6.61182L66.1382 6.08163L65.8444 5.61182H65.2903V6.61182ZM67.7571 10.5568L66.9092 11.087L67.203 11.5568H67.7571V10.5568ZM67.7859 10.5568V11.5568H68.8157L68.7854 10.5274L67.7859 10.5568ZM67.7571 9.57965H66.7571V9.59437L66.7575 9.60907L67.7571 9.57965ZM67.7571 6.61266V5.61266H66.7571V6.61266H67.7571ZM68.4102 6.61266H69.4102V5.61266H68.4102V6.61266ZM68.4102 11.6844V12.6844H69.4102V11.6844H68.4102ZM67.7292 11.6844L66.8807 12.2136L67.1743 12.6844H67.7292V11.6844ZM65.149 7.54671L65.9976 7.01759L65.704 6.54671H65.149V7.54671ZM65.1203 7.54671V6.54671H64.0904L64.1207 7.57611L65.1203 7.54671ZM65.149 8.52472H66.149V8.51002L66.1486 8.49532L65.149 8.52472ZM65.149 11.6836V12.6836H66.149V11.6836H65.149ZM65.4968 11.6836V6.61182H63.4968V11.6836H65.4968ZM64.4968 7.61182H65.2903V5.61182H64.4968V7.61182ZM64.4424 7.142L66.9092 11.087L68.605 10.0266L66.1382 6.08163L64.4424 7.142ZM67.7571 11.5568H67.7859V9.55682H67.7571V11.5568ZM68.7854 10.5274L68.7567 9.55023L66.7575 9.60907L66.7863 10.5862L68.7854 10.5274ZM68.7571 9.57965V6.61266H66.7571V9.57965H68.7571ZM67.7571 7.61266H68.4102V5.61266H67.7571V7.61266ZM67.4102 6.61266V11.6844H69.4102V6.61266H67.4102ZM68.4102 10.6844H67.7292V12.6844H68.4102V10.6844ZM68.5777 11.1553L65.9976 7.01759L64.3005 8.07584L66.8807 12.2136L68.5777 11.1553ZM65.149 6.54671H65.1203V8.54671H65.149V6.54671ZM64.1207 7.57611L64.1495 8.55412L66.1486 8.49532L66.1198 7.51731L64.1207 7.57611ZM64.149 8.52472V11.6836H66.149V8.52472H64.149ZM65.149 10.6836H64.4968V12.6836H65.149V10.6836Z" fill="#0B0C0E" mask="url(#path-20-inside-7_1_19152)"/>
  <path fill-rule="evenodd" clip-rule="evenodd" d="M64.4968 11.6836V6.61182H65.2903L67.7571 10.5568H67.7859L67.7571 9.57965V6.61266H68.4102V11.6844H67.7292L65.149 7.54671H65.1203L65.149 8.52472V11.6836H64.4968Z" fill="#0B0C0E" stroke="#0B0C0E" stroke-width="0.2"/>
  <path fill-rule="evenodd" clip-rule="evenodd" d="M91.0267 26.0546H92.6044V15.4875H91.0267V26.0546ZM105.245 19.2939L103.435 23.8754H103.381L101.503 19.2939H99.8026L102.62 25.697L101.013 29.2591H102.659L107 19.2939H105.245ZM96.2919 24.8543C95.7759 24.8543 95.0543 24.5965 95.0543 23.9574C95.0543 23.1417 95.9527 22.8289 96.7284 22.8289C97.4212 22.8289 97.7486 22.9786 98.1699 23.1823C98.1119 23.6407 97.8897 24.0626 97.5445 24.3699C97.1992 24.6773 96.7543 24.8493 96.2919 24.8543ZM96.4831 19.0631C95.3402 19.0631 94.1567 19.5661 93.6669 20.681L95.0678 21.2651C95.3673 20.681 95.9247 20.4909 96.5101 20.4909C97.3265 20.4909 98.1564 20.9794 98.1699 21.8492V21.9583C97.884 21.796 97.2715 21.5509 96.5237 21.5509C95.0128 21.5509 93.4757 22.3801 93.4757 23.9295C93.4757 25.3437 94.7142 26.2549 96.1015 26.2549C97.1624 26.2549 97.7486 25.779 98.1149 25.2211H98.1699V26.0377H99.6943V21.9862C99.6943 20.1096 98.2917 19.0631 96.4831 19.0631ZM86.7275 20.5805H84.4823V16.9584H86.7275C87.9076 16.9584 88.5776 17.9347 88.5776 18.769C88.5776 19.5881 87.9076 20.5805 86.7275 20.5805ZM86.6869 15.4875H82.9046V26.0546H84.4823V22.0513H86.6869C88.4363 22.0513 90.1562 20.7859 90.1562 18.769C90.1562 16.753 88.4363 15.4875 86.6869 15.4875ZM66.0616 24.8568C64.9712 24.8568 64.0584 23.9439 64.0584 22.6912C64.0584 21.4249 64.9712 20.4985 66.0616 20.4985C67.1377 20.4985 67.9828 21.4249 67.9828 22.6912C67.9828 23.9439 67.1377 24.8568 66.0616 24.8568ZM67.8737 19.8856H67.8195C67.4651 19.4638 66.7832 19.0826 65.9254 19.0826C64.1261 19.0826 62.4765 20.6624 62.4765 22.6912C62.4765 24.7063 64.1261 26.2727 65.9254 26.2727C66.7832 26.2727 67.4651 25.8915 67.8195 25.4561H67.8737V25.9726C67.8737 27.3487 67.1377 28.0833 65.9525 28.0833C64.9847 28.0833 64.3849 27.3893 64.1396 26.8035L62.7632 27.3758C63.1583 28.3293 64.2073 29.5 65.9525 29.5C67.806 29.5 69.3736 28.4104 69.3736 25.7554V19.2998H67.8737V19.8856ZM70.464 26.0546H72.0442V15.4875H70.464V26.0546ZM74.3748 22.5686C74.3342 21.1798 75.4517 20.4714 76.2554 20.4714C76.8831 20.4714 77.4144 20.785 77.592 21.2339L74.3748 22.5686ZM79.2814 21.37C78.9811 20.5669 78.0683 19.0826 76.2013 19.0826C74.3478 19.0826 72.8073 20.5399 72.8073 22.6776C72.8073 24.6928 74.3342 26.2727 76.3781 26.2727C78.0268 26.2727 78.9811 25.2651 79.377 24.6793L78.1503 23.8619C77.7409 24.4612 77.1826 24.8568 76.3781 24.8568C75.5744 24.8568 75.0017 24.4891 74.6346 23.7672L79.4447 21.7791L79.2814 21.37ZM40.9528 20.1857V21.7106H44.6048C44.4965 22.5686 44.2097 23.195 43.7741 23.6303C43.242 24.162 42.4104 24.7478 40.9528 24.7478C38.7034 24.7478 36.9455 22.9363 36.9455 20.6895C36.9455 18.4427 38.7034 16.6312 40.9528 16.6312C42.1659 16.6312 43.0516 17.108 43.7055 17.7208L44.7824 16.6448C43.8688 15.7733 42.6566 15.1055 40.9528 15.1055C37.8718 15.1055 35.2823 17.6118 35.2823 20.6895C35.2823 23.7672 37.8718 26.2727 40.9528 26.2727C42.6151 26.2727 43.8688 25.7275 44.8501 24.7064C45.8585 23.6988 46.1723 22.2829 46.1723 21.1384C46.1723 20.785 46.1453 20.4579 46.0903 20.1857H40.9528ZM50.3243 24.8568C49.2347 24.8568 48.294 23.9574 48.294 22.6776C48.294 21.3835 49.2347 20.4985 50.3243 20.4985C51.4147 20.4985 52.3554 21.3835 52.3554 22.6776C52.3554 23.9574 51.4147 24.8568 50.3243 24.8568ZM50.3243 19.0826C48.3346 19.0826 46.7129 20.594 46.7129 22.6776C46.7129 24.7478 48.3346 26.2727 50.3243 26.2727C52.3148 26.2727 53.9365 24.7478 53.9365 22.6776C53.9365 20.594 52.3148 19.0826 50.3243 19.0826ZM58.2035 24.8568C57.1131 24.8568 56.1724 23.9574 56.1724 22.6776C56.1724 21.3835 57.1131 20.4985 58.2035 20.4985C59.294 20.4985 60.2338 21.3835 60.2338 22.6776C60.2338 23.9574 59.294 24.8568 58.2035 24.8568ZM58.2035 19.0826C56.2139 19.0826 54.5922 20.594 54.5922 22.6776C54.5922 24.7478 56.2139 26.2727 58.2035 26.2727C60.1932 26.2727 61.8149 24.7478 61.8149 22.6776C61.8149 20.594 60.1932 19.0826 58.2035 19.0826Z" fill="#0B0C0E"/>
  <path fill-rule="evenodd" clip-rule="evenodd" d="M9.39168 7.06683C9.1455 7.32719 9 7.73124 9 8.25448V26.9491C9 27.4731 9.1455 27.8764 9.39168 28.1367L9.45343 28.1976L19.9348 17.7252V17.4784L9.45343 7.00513L9.39168 7.06683Z" fill="url(#paint0_linear_1_19152)"/>
  <path fill-rule="evenodd" clip-rule="evenodd" d="M19.9353 17.479V17.7258L23.4282 21.2186L23.5078 21.1738L27.647 18.8238C28.8288 18.1518 28.8288 17.053 27.647 16.3818L23.5078 14.0319L23.4291 13.9871L19.9353 17.479Z" fill="url(#paint1_linear_1_19152)"/>
  <path fill-rule="evenodd" clip-rule="evenodd" d="M9.3918 28.1372C9.78094 28.5497 10.4247 28.6005 11.1497 28.1888L23.5074 21.1728L19.935 17.6023L9.3918 28.1372Z" fill="url(#paint2_linear_1_19152)"/>
  <path fill-rule="evenodd" clip-rule="evenodd" d="M9.3918 7.06812L19.935 17.6031L23.5074 14.0325L11.1497 7.01655C10.8096 6.82298 10.4873 6.73169 10.2014 6.73169C9.87653 6.73169 9.59821 6.84919 9.3918 7.06812Z" fill="url(#paint3_linear_1_19152)"/>
  <defs>
    <linearGradient id="paint0_linear_1_19152" x1="14.4674" y1="7.00513" x2="14.4674" y2="28.1976" gradientUnits="userSpaceOnUse">
      <stop stop-color="#00A0FF"/>
      <stop offset="0.2657" stop-color="#00B2FF"/>
      <stop offset="1" stop-color="#00E3FF"/>
    </linearGradient>
    <linearGradient id="paint1_linear_1_19152" x1="28.5334" y1="17.6028" x2="19.9353" y2="17.6028" gradientUnits="userSpaceOnUse">
      <stop stop-color="#FFE000"/>
      <stop offset="1" stop-color="#FF9C00"/>
    </linearGradient>
    <linearGradient id="paint2_linear_1_19152" x1="16.4496" y1="17.6023" x2="16.4496" y2="28.4733" gradientUnits="userSpaceOnUse">
      <stop stop-color="#FF3A44"/>
      <stop offset="1" stop-color="#C31162"/>
    </linearGradient>
    <linearGradient id="paint3_linear_1_19152" x1="16.5566" y1="6.65015" x2="16.5566" y2="17.6302" gradientUnits="userSpaceOnUse">
      <stop stop-color="#32A071"/>
      <stop offset="1" stop-color="#00F076"/>
    </linearGradient>
  </defs>
</svg>