<svg xmlns="http://www.w3.org/2000/svg" width="137" height="42" viewBox="0 0 137 42" fill="none">
  <path d="M6.08497 41.5H130.268C133.279 41.5 135.735 39.023 135.735 36V6C135.735 2.97695 133.279 0.5 130.268 0.5H6.08497C3.07371 0.5 0.617645 2.97695 0.617645 6V36C0.617645 39.023 3.07371 41.5 6.08497 41.5Z" stroke="#0B0C0E"/>
  <mask id="path-2-inside-1_1_19251" fill="white">
    <path fill-rule="evenodd" clip-rule="evenodd" d="M47.7964 10.8278C47.7964 11.6612 47.5496 12.3245 47.0549 12.8197C46.4926 13.4084 45.7611 13.7028 44.8614 13.7028C43.9995 13.7028 43.266 13.4045 42.6639 12.8078C42.0598 12.2111 41.7592 11.4692 41.7592 10.5861C41.7592 9.70206 42.0598 8.96218 42.6649 8.3645C43.266 7.76782 43.9995 7.46948 44.8614 7.46948C45.2894 7.46948 45.6984 7.55302 46.0866 7.71909C46.4757 7.88616 46.7872 8.10793 47.0221 8.38539L46.4956 8.91046C46.1005 8.43909 45.5561 8.2024 44.8614 8.2024C44.2324 8.2024 43.689 8.42318 43.2302 8.86472C42.7724 9.30726 42.5435 9.88007 42.5435 10.5861C42.5435 11.2922 42.7724 11.865 43.2302 12.3066C43.4443 12.5202 43.699 12.6889 43.9793 12.8026C44.2596 12.9164 44.5599 12.9729 44.8624 12.9689C45.5292 12.9689 46.0836 12.7471 46.5294 12.3026C46.8181 12.0142 46.9853 11.6114 47.0291 11.0943H44.8624V10.3783H47.7556C47.7834 10.5334 47.7974 10.6826 47.7974 10.8278"/>
  </mask>
  <path fill-rule="evenodd" clip-rule="evenodd" d="M47.7964 10.8278C47.7964 11.6612 47.5496 12.3245 47.0549 12.8197C46.4926 13.4084 45.7611 13.7028 44.8614 13.7028C43.9995 13.7028 43.266 13.4045 42.6639 12.8078C42.0598 12.2111 41.7592 11.4692 41.7592 10.5861C41.7592 9.70206 42.0598 8.96218 42.6649 8.3645C43.266 7.76782 43.9995 7.46948 44.8614 7.46948C45.2894 7.46948 45.6984 7.55302 46.0866 7.71909C46.4757 7.88616 46.7872 8.10793 47.0221 8.38539L46.4956 8.91046C46.1005 8.43909 45.5561 8.2024 44.8614 8.2024C44.2324 8.2024 43.689 8.42318 43.2302 8.86472C42.7724 9.30726 42.5435 9.88007 42.5435 10.5861C42.5435 11.2922 42.7724 11.865 43.2302 12.3066C43.4443 12.5202 43.699 12.6889 43.9793 12.8026C44.2596 12.9164 44.5599 12.9729 44.8624 12.9689C45.5292 12.9689 46.0836 12.7471 46.5294 12.3026C46.8181 12.0142 46.9853 11.6114 47.0291 11.0943H44.8624V10.3783H47.7556C47.7834 10.5334 47.7974 10.6826 47.7974 10.8278" fill="#0B0C0E"/>
  <path d="M47.0549 12.8197L46.3474 12.113L46.3395 12.1209L46.3318 12.129L47.0549 12.8197ZM42.6639 12.8078L43.3678 12.0975L43.3666 12.0963L42.6639 12.8078ZM42.6649 8.3645L43.3676 9.07597L43.3694 9.07423L42.6649 8.3645ZM46.0866 7.71909L46.4811 6.8002L46.4799 6.79972L46.0866 7.71909ZM47.0221 8.38539L47.7283 9.09344L48.3808 8.44266L47.7853 7.73927L47.0221 8.38539ZM46.4956 8.91046L45.7292 9.55285L46.4297 10.3885L47.2018 9.61852L46.4956 8.91046ZM43.2302 8.86472L42.5368 8.14418L42.5352 8.14572L43.2302 8.86472ZM43.2302 12.3066L43.9366 11.5987L43.9306 11.5927L43.9244 11.5868L43.2302 12.3066ZM44.8624 12.9689V11.9688L44.8492 11.969L44.8624 12.9689ZM46.5294 12.3026L47.2355 13.0108L47.2363 13.01L46.5294 12.3026ZM47.0291 11.0943L48.0255 11.1787L48.1173 10.0943H47.0291V11.0943ZM44.8624 11.0943H43.8624V12.0943H44.8624V11.0943ZM44.8624 10.3783V9.3783H43.8624V10.3783H44.8624ZM47.7556 10.3783L48.7398 10.2015L48.592 9.3783H47.7556V10.3783ZM46.7964 10.8278C46.7964 11.4505 46.6196 11.8405 46.3474 12.113L47.7625 13.5264C48.4796 12.8084 48.7964 11.8718 48.7964 10.8278H46.7964ZM46.3318 12.129C45.9791 12.4982 45.5199 12.7028 44.8614 12.7028V14.7028C46.0024 14.7028 47.0061 14.3186 47.7781 13.5104L46.3318 12.129ZM44.8614 12.7028C44.2577 12.7028 43.7788 12.5048 43.3678 12.0975L41.96 13.5181C42.7533 14.3042 43.7414 14.7028 44.8614 14.7028V12.7028ZM43.3666 12.0963C42.9624 11.6971 42.7592 11.2158 42.7592 10.5861H40.7592C40.7592 11.7227 41.1572 12.7251 41.9612 13.5192L43.3666 12.0963ZM42.7592 10.5861C42.7592 9.95627 42.9619 9.47672 43.3676 9.07597L41.9622 7.65304C41.1577 8.44764 40.7592 9.44785 40.7592 10.5861H42.7592ZM43.3694 9.07423C43.7791 8.66759 44.2576 8.46948 44.8614 8.46948V6.46948C43.7415 6.46948 42.753 6.86805 41.9604 7.65478L43.3694 9.07423ZM44.8614 8.46948C45.1556 8.46948 45.4307 8.52615 45.6932 8.63847L46.4799 6.79972C45.9662 6.57989 45.4232 6.46948 44.8614 6.46948V8.46948ZM45.6921 8.63799C45.9625 8.75408 46.1395 8.89051 46.2588 9.0315L47.7853 7.73927C47.4349 7.32535 46.9889 7.01825 46.4811 6.8002L45.6921 8.63799ZM46.3159 7.67734L45.7894 8.20241L47.2018 9.61852L47.7283 9.09344L46.3159 7.67734ZM47.262 8.26808C46.6517 7.54002 45.8104 7.2024 44.8614 7.2024V9.2024C45.3018 9.2024 45.5493 9.33816 45.7292 9.55285L47.262 8.26808ZM44.8614 7.2024C43.9701 7.2024 43.1792 7.52597 42.5368 8.14419L43.9236 9.58525C44.1989 9.32038 44.4948 9.2024 44.8614 9.2024V7.2024ZM42.5352 8.14572C41.8607 8.79772 41.5435 9.64082 41.5435 10.5861H43.5435C43.5435 10.1193 43.6841 9.81679 43.9252 9.58372L42.5352 8.14572ZM41.5435 10.5861C41.5435 11.5312 41.8606 12.3749 42.536 13.0263L43.9244 11.5868C43.6842 11.3551 43.5435 11.0532 43.5435 10.5861H41.5435ZM42.5238 13.0144C42.8324 13.3223 43.1994 13.5653 43.6033 13.7292L44.3553 11.876C44.1986 11.8124 44.0562 11.7181 43.9366 11.5987L42.5238 13.0144ZM43.6033 13.7292C44.0072 13.8931 44.4398 13.9746 44.8757 13.9688L44.8492 11.969C44.68 11.9712 44.512 11.9396 44.3553 11.876L43.6033 13.7292ZM44.8624 13.9689C45.7769 13.9689 46.5905 13.6539 47.2355 13.0108L45.8234 11.5944C45.5767 11.8404 45.2815 11.9689 44.8624 11.9689V13.9689ZM47.2363 13.01C47.7323 12.5143 47.9672 11.8673 48.0255 11.1787L46.0326 11.0099C46.0033 11.3556 45.9038 11.5141 45.8226 11.5952L47.2363 13.01ZM47.0291 10.0943H44.8624V12.0943H47.0291V10.0943ZM45.8624 11.0943V10.3783H43.8624V11.0943H45.8624ZM44.8624 11.3783H47.7556V9.3783H44.8624V11.3783ZM46.7713 10.5551C46.7897 10.6572 46.7974 10.7471 46.7974 10.8278H48.7974C48.7974 10.6181 48.7772 10.4097 48.7398 10.2015L46.7713 10.5551Z" fill="#0B0C0E" mask="url(#path-2-inside-1_1_19251)"/>
  <path fill-rule="evenodd" clip-rule="evenodd" d="M47.7964 10.8278C47.7964 11.6612 47.5496 12.3245 47.0549 12.8197C46.4926 13.4084 45.7611 13.7028 44.8614 13.7028C43.9995 13.7028 43.266 13.4045 42.6639 12.8078C42.0598 12.2111 41.7592 11.4692 41.7592 10.5861C41.7592 9.70206 42.0598 8.96218 42.6649 8.3645C43.266 7.76782 43.9995 7.46948 44.8614 7.46948C45.2894 7.46948 45.6984 7.55302 46.0866 7.71909C46.4757 7.88616 46.7872 8.10793 47.0221 8.38539L46.4956 8.91046C46.1005 8.43909 45.5561 8.2024 44.8614 8.2024C44.2324 8.2024 43.689 8.42318 43.2302 8.86472C42.7724 9.30726 42.5435 9.88007 42.5435 10.5861C42.5435 11.2922 42.7724 11.865 43.2302 12.3066C43.4443 12.5202 43.699 12.6889 43.9793 12.8026C44.2596 12.9164 44.5599 12.9729 44.8624 12.9689C45.5292 12.9689 46.0836 12.7471 46.5294 12.3026C46.8181 12.0142 46.9853 11.6114 47.0291 11.0943H44.8624V10.3783H47.7556C47.7834 10.5334 47.7974 10.6826 47.7974 10.8278H47.7964Z" fill="#0B0C0E" stroke="#0B0C0E" stroke-width="0.2"/>
  <mask id="path-5-inside-2_1_19251" fill="white">
    <path fill-rule="evenodd" clip-rule="evenodd" d="M52.3852 8.33473H49.6662V10.2272H52.1174V10.9442H49.6662V12.8357H52.3852V13.5686H48.8988V7.60181H52.3852V8.33473Z"/>
  </mask>
  <path fill-rule="evenodd" clip-rule="evenodd" d="M52.3852 8.33473H49.6662V10.2272H52.1174V10.9442H49.6662V12.8357H52.3852V13.5686H48.8988V7.60181H52.3852V8.33473Z" fill="#0B0C0E"/>
  <path d="M52.3852 8.33473V9.33473H53.3852V8.33473H52.3852ZM49.6662 8.33473V7.33473H48.6662V8.33473H49.6662ZM49.6662 10.2272H48.6662V11.2272H49.6662V10.2272ZM52.1174 10.2272H53.1174V9.2272H52.1174V10.2272ZM52.1174 10.9442V11.9442H53.1174V10.9442H52.1174ZM49.6662 10.9442V9.94421H48.6662V10.9442H49.6662ZM49.6662 12.8357H48.6662V13.8357H49.6662V12.8357ZM52.3852 12.8357H53.3852V11.8357H52.3852V12.8357ZM52.3852 13.5686V14.5686H53.3852V13.5686H52.3852ZM48.8988 13.5686H47.8988V14.5686H48.8988V13.5686ZM48.8988 7.60181V6.60181H47.8988V7.60181H48.8988ZM52.3852 7.60181H53.3852V6.60181H52.3852V7.60181ZM52.3852 7.33473H49.6662V9.33473H52.3852V7.33473ZM48.6662 8.33473V10.2272H50.6662V8.33473H48.6662ZM49.6662 11.2272H52.1174V9.2272H49.6662V11.2272ZM51.1174 10.2272V10.9442H53.1174V10.2272H51.1174ZM52.1174 9.94421H49.6662V11.9442H52.1174V9.94421ZM48.6662 10.9442V12.8357H50.6662V10.9442H48.6662ZM49.6662 13.8357H52.3852V11.8357H49.6662V13.8357ZM51.3852 12.8357V13.5686H53.3852V12.8357H51.3852ZM52.3852 12.5686H48.8988V14.5686H52.3852V12.5686ZM49.8988 13.5686V7.60181H47.8988V13.5686H49.8988ZM48.8988 8.60181H52.3852V6.60181H48.8988V8.60181ZM51.3852 7.60181V8.33473H53.3852V7.60181H51.3852Z" fill="#0B0C0E" mask="url(#path-5-inside-2_1_19251)"/>
  <path fill-rule="evenodd" clip-rule="evenodd" d="M52.3852 8.33473H49.6662V10.2272H52.1174V10.9442H49.6662V12.8357H52.3852V13.5686H48.8988V7.60181H52.3852V8.33473Z" fill="#0B0C0E" stroke="#0B0C0E" stroke-width="0.2"/>
  <mask id="path-8-inside-3_1_19251" fill="white">
    <path fill-rule="evenodd" clip-rule="evenodd" d="M55.6199 13.5686H54.8525V8.33473H53.1845V7.60181H57.2879V8.33473H55.6199V13.5686Z"/>
  </mask>
  <path fill-rule="evenodd" clip-rule="evenodd" d="M55.6199 13.5686H54.8525V8.33473H53.1845V7.60181H57.2879V8.33473H55.6199V13.5686Z" fill="#0B0C0E"/>
  <path d="M55.6199 13.5686V14.5686H56.6199V13.5686H55.6199ZM54.8525 13.5686H53.8525V14.5686H54.8525V13.5686ZM54.8525 8.33473H55.8525V7.33473H54.8525V8.33473ZM53.1845 8.33473H52.1845V9.33473H53.1845V8.33473ZM53.1845 7.60181V6.60181H52.1845V7.60181H53.1845ZM57.2879 7.60181H58.2879V6.60181H57.2879V7.60181ZM57.2879 8.33473V9.33473H58.2879V8.33473H57.2879ZM55.6199 8.33473V7.33473H54.6199V8.33473H55.6199ZM55.6199 12.5686H54.8525V14.5686H55.6199V12.5686ZM55.8525 13.5686V8.33473H53.8525V13.5686H55.8525ZM54.8525 7.33473H53.1845V9.33473H54.8525V7.33473ZM54.1845 8.33473V7.60181H52.1845V8.33473H54.1845ZM53.1845 8.60181H57.2879V6.60181H53.1845V8.60181ZM56.2879 7.60181V8.33473H58.2879V7.60181H56.2879ZM57.2879 7.33473H55.6199V9.33473H57.2879V7.33473ZM54.6199 8.33473V13.5686H56.6199V8.33473H54.6199Z" fill="#0B0C0E" mask="url(#path-8-inside-3_1_19251)"/>
  <path fill-rule="evenodd" clip-rule="evenodd" d="M55.6199 13.5686H54.8525V8.33473H53.1845V7.60181H57.2879V8.33473H55.6199V13.5686Z" fill="#0B0C0E" stroke="#0B0C0E" stroke-width="0.2"/>
  <mask id="path-11-inside-4_1_19251" fill="white">
    <path fill-rule="evenodd" clip-rule="evenodd" d="M60.2571 13.5686H61.0244V7.60181H60.2571V13.5686Z"/>
  </mask>
  <path fill-rule="evenodd" clip-rule="evenodd" d="M60.2571 13.5686H61.0244V7.60181H60.2571V13.5686Z" fill="#0B0C0E"/>
  <path d="M60.2571 13.5686H59.2571V14.5686H60.2571V13.5686ZM61.0244 13.5686V14.5686H62.0244V13.5686H61.0244ZM61.0244 7.60181H62.0244V6.60181H61.0244V7.60181ZM60.2571 7.60181V6.60181H59.2571V7.60181H60.2571ZM60.2571 14.5686H61.0244V12.5686H60.2571V14.5686ZM62.0244 13.5686V7.60181H60.0244V13.5686H62.0244ZM61.0244 6.60181H60.2571V8.60181H61.0244V6.60181ZM59.2571 7.60181V13.5686H61.2571V7.60181H59.2571Z" fill="#0B0C0E" mask="url(#path-11-inside-4_1_19251)"/>
  <path fill-rule="evenodd" clip-rule="evenodd" d="M60.2571 13.5686H61.0244V7.60181H60.2571V13.5686Z" fill="#0B0C0E" stroke="#0B0C0E" stroke-width="0.2"/>
  <mask id="path-14-inside-5_1_19251" fill="white">
    <path fill-rule="evenodd" clip-rule="evenodd" d="M64.4272 13.5686H63.6609V8.33473H61.9908V7.60181H66.0942V8.33473H64.4262L64.4272 13.5686Z"/>
  </mask>
  <path fill-rule="evenodd" clip-rule="evenodd" d="M64.4272 13.5686H63.6609V8.33473H61.9908V7.60181H66.0942V8.33473H64.4262L64.4272 13.5686Z" fill="#0B0C0E"/>
  <path d="M64.4272 13.5686V14.5686H65.4274L65.4272 13.5684L64.4272 13.5686ZM63.6609 13.5686H62.6609V14.5686H63.6609V13.5686ZM63.6609 8.33473H64.6609V7.33473H63.6609V8.33473ZM61.9908 8.33473H60.9908V9.33473H61.9908V8.33473ZM61.9908 7.60181V6.60181H60.9908V7.60181H61.9908ZM66.0942 7.60181H67.0942V6.60181H66.0942V7.60181ZM66.0942 8.33473V9.33473H67.0942V8.33473H66.0942ZM64.4262 8.33473V7.33473H63.426L63.4262 8.33492L64.4262 8.33473ZM64.4272 12.5686H63.6609V14.5686H64.4272V12.5686ZM64.6609 13.5686V8.33473H62.6609V13.5686H64.6609ZM63.6609 7.33473H61.9908V9.33473H63.6609V7.33473ZM62.9908 8.33473V7.60181H60.9908V8.33473H62.9908ZM61.9908 8.60181H66.0942V6.60181H61.9908V8.60181ZM65.0942 7.60181V8.33473H67.0942V7.60181H65.0942ZM66.0942 7.33473H64.4262V9.33473H66.0942V7.33473ZM63.4262 8.33492L63.4272 13.5688L65.4272 13.5684L65.4262 8.33454L63.4262 8.33492Z" fill="#0B0C0E" mask="url(#path-14-inside-5_1_19251)"/>
  <path fill-rule="evenodd" clip-rule="evenodd" d="M64.4272 13.5686H63.6609V8.33473H61.9908V7.60181H66.0942V8.33473H64.4262L64.4272 13.5686Z" fill="#0B0C0E" stroke="#0B0C0E" stroke-width="0.2"/>
  <mask id="path-17-inside-6_1_19251" fill="white">
    <path fill-rule="evenodd" clip-rule="evenodd" d="M70.0517 12.2985C70.2612 12.516 70.5135 12.6878 70.7927 12.8032C71.0719 12.9185 71.3719 12.9749 71.674 12.9688C72.3119 12.9688 72.8534 12.746 73.2962 12.2985C73.7371 11.851 73.9591 11.2802 73.9591 10.586C73.9591 9.89188 73.7371 9.32006 73.2952 8.87355C73.0857 8.656 72.8335 8.48408 72.5543 8.36856C72.2751 8.25305 71.9751 8.19644 71.673 8.20228C71.0331 8.20228 70.4926 8.42604 70.0508 8.87355C69.6099 9.32106 69.3879 9.89188 69.3879 10.586C69.3879 11.2802 69.6099 11.851 70.0508 12.2985M73.8625 12.7977C73.2753 13.4014 72.5458 13.7027 71.673 13.7027C70.8002 13.7027 70.0707 13.4014 69.4845 12.7977C68.8973 12.1951 68.6047 11.4582 68.6047 10.586C68.6047 9.71387 68.8973 8.97598 69.4845 8.37333C70.0717 7.77068 70.8002 7.46936 71.674 7.46936C72.5409 7.46936 73.2684 7.77168 73.8586 8.37731C74.4477 8.98393 74.7423 9.71984 74.7423 10.586C74.7423 11.4582 74.4487 12.1951 73.8625 12.7977Z"/>
  </mask>
  <path fill-rule="evenodd" clip-rule="evenodd" d="M70.0517 12.2985C70.2612 12.516 70.5135 12.6878 70.7927 12.8032C71.0719 12.9185 71.3719 12.9749 71.674 12.9688C72.3119 12.9688 72.8534 12.746 73.2962 12.2985C73.7371 11.851 73.9591 11.2802 73.9591 10.586C73.9591 9.89188 73.7371 9.32006 73.2952 8.87355C73.0857 8.656 72.8335 8.48408 72.5543 8.36856C72.2751 8.25305 71.9751 8.19644 71.673 8.20228C71.0331 8.20228 70.4926 8.42604 70.0508 8.87355C69.6099 9.32106 69.3879 9.89188 69.3879 10.586C69.3879 11.2802 69.6099 11.851 70.0508 12.2985M73.8625 12.7977C73.2753 13.4014 72.5458 13.7027 71.673 13.7027C70.8002 13.7027 70.0707 13.4014 69.4845 12.7977C68.8973 12.1951 68.6047 11.4582 68.6047 10.586C68.6047 9.71387 68.8973 8.97598 69.4845 8.37333C70.0717 7.77068 70.8002 7.46936 71.674 7.46936C72.5409 7.46936 73.2684 7.77168 73.8586 8.37731C74.4477 8.98393 74.7423 9.71984 74.7423 10.586C74.7423 11.4582 74.4487 12.1951 73.8625 12.7977Z" fill="#0B0C0E"/>
  <path d="M71.674 12.9688V11.9688H71.6638L71.6536 11.969L71.674 12.9688ZM73.2962 12.2985L74.007 13.0019L74.0086 13.0003L73.2962 12.2985ZM73.2952 8.87355L72.5749 9.5673L72.5845 9.57696L73.2952 8.87355ZM71.673 8.20228V9.20228H71.6827L71.6923 9.2021L71.673 8.20228ZM70.0508 8.87355L69.3392 8.17092L69.3384 8.17173L70.0508 8.87355ZM73.8625 12.7977L74.5793 13.495L74.5794 13.495L73.8625 12.7977ZM69.4845 12.7977L70.2019 12.101L70.2007 12.0998L69.4845 12.7977ZM73.8586 8.37731L74.5759 7.68059L74.5747 7.6794L73.8586 8.37731ZM69.3315 12.9922C69.6367 13.3091 70.0042 13.5594 70.4108 13.7274L71.1746 11.879C71.0228 11.8163 70.8858 11.7229 70.772 11.6048L69.3315 12.9922ZM70.4108 13.7274C70.8175 13.8954 71.2545 13.9775 71.6944 13.9686L71.6536 11.969C71.4894 11.9723 71.3263 11.9417 71.1746 11.879L70.4108 13.7274ZM71.674 13.9688C72.5734 13.9688 73.3724 13.6432 74.007 13.0019L72.5855 11.5951C72.3343 11.8488 72.0505 11.9688 71.674 11.9688V13.9688ZM74.0086 13.0003C74.6529 12.3464 74.9591 11.5143 74.9591 10.586H72.9591C72.9591 11.046 72.8214 11.3556 72.5839 11.5967L74.0086 13.0003ZM74.9591 10.586C74.9591 9.65827 74.6532 8.82405 74.006 8.17013L72.5845 9.57696C72.8211 9.81608 72.9591 10.1255 72.9591 10.586H74.9591ZM74.0155 8.17985C73.7104 7.86304 73.3431 7.61272 72.9366 7.44454L72.172 9.29258C72.3239 9.35544 72.4611 9.44896 72.575 9.56724L74.0155 8.17985ZM72.9366 7.44454C72.5302 7.27637 72.0934 7.19396 71.6537 7.20247L71.6923 9.2021C71.8568 9.19891 72.0201 9.22973 72.172 9.29258L72.9366 7.44454ZM71.673 7.20228C70.7707 7.20228 69.9725 7.52958 69.3392 8.17092L70.7623 9.57617C71.0128 9.32249 71.2954 9.20228 71.673 9.20228V7.20228ZM69.3384 8.17173C68.6941 8.82566 68.3879 9.6577 68.3879 10.586H70.3879C70.3879 10.1261 70.5256 9.81645 70.7631 9.57537L69.3384 8.17173ZM68.3879 10.586C68.3879 11.5143 68.6941 12.3464 69.3384 13.0003L70.7631 11.5967C70.5256 11.3556 70.3879 11.046 70.3879 10.586H68.3879ZM73.1457 12.1004C72.7545 12.5026 72.2871 12.7027 71.673 12.7027V14.7027C72.8045 14.7027 73.7961 14.3001 74.5793 13.495L73.1457 12.1004ZM71.673 12.7027C71.0587 12.7027 70.5917 12.5025 70.2019 12.101L68.7671 13.4944C69.5496 14.3002 70.5416 14.7027 71.673 14.7027V12.7027ZM70.2007 12.0998C69.8032 11.6919 69.6047 11.2087 69.6047 10.586H67.6047C67.6047 11.7076 67.9914 12.6983 68.7682 13.4956L70.2007 12.0998ZM69.6047 10.586C69.6047 9.96298 69.8034 9.47895 70.2007 9.07119L68.7682 7.67547C67.9911 8.473 67.6047 9.46477 67.6047 10.586H69.6047ZM70.2007 9.07119C70.5922 8.66942 71.059 8.46936 71.674 8.46936V6.46936C70.5414 6.46936 69.5511 6.87194 68.7682 7.67547L70.2007 9.07119ZM71.674 8.46936C72.2788 8.46936 72.7457 8.66818 73.1424 9.07522L74.5747 7.6794C73.791 6.87518 72.8029 6.46936 71.674 6.46936V8.46936ZM73.1412 9.07403C73.5444 9.48915 73.7423 9.97313 73.7423 10.586H75.7423C75.7423 9.46655 75.3511 8.47872 74.5759 7.68059L73.1412 9.07403ZM73.7423 10.586C73.7423 11.208 73.5433 11.6917 73.1457 12.1005L74.5794 13.495C75.3541 12.6984 75.7423 11.7084 75.7423 10.586H73.7423Z" fill="#0B0C0E" mask="url(#path-17-inside-6_1_19251)"/>
  <path fill-rule="evenodd" clip-rule="evenodd" d="M70.0517 12.2985C70.2612 12.516 70.5135 12.6878 70.7927 12.8032C71.0719 12.9185 71.3719 12.9749 71.674 12.9688C72.3119 12.9688 72.8534 12.746 73.2962 12.2985C73.7371 11.851 73.9591 11.2802 73.9591 10.586C73.9591 9.89188 73.7371 9.32006 73.2952 8.87355C73.0857 8.656 72.8335 8.48408 72.5543 8.36856C72.2751 8.25305 71.9751 8.19644 71.673 8.20228C71.0331 8.20228 70.4926 8.42604 70.0508 8.87355C69.6099 9.32106 69.3879 9.89188 69.3879 10.586C69.3879 11.2802 69.6099 11.851 70.0508 12.2985H70.0517ZM73.8635 12.7977C73.2763 13.4014 72.5458 13.7027 71.674 13.7027C70.8002 13.7027 70.0717 13.4014 69.4845 12.7977C68.8973 12.1951 68.6047 11.4582 68.6047 10.586C68.6047 9.71387 68.8973 8.97598 69.4845 8.37333C70.0717 7.77068 70.8002 7.46936 71.674 7.46936C72.5409 7.46936 73.2684 7.77168 73.8586 8.37731C74.4477 8.98393 74.7423 9.71984 74.7423 10.586C74.7423 11.4582 74.4487 12.1951 73.8625 12.7977H73.8635Z" fill="#0B0C0E" stroke="#0B0C0E" stroke-width="0.2"/>
  <path d="M76.4763 8.10181L76.5387 8.20169H76.3198V8.10181H76.4763ZM79.6964 12.743H79.9238V13.0696H79.9001L79.6964 12.743Z" fill="#0B0C0E" stroke="#0B0C0E"/>
  <path fill-rule="evenodd" clip-rule="evenodd" d="M75.8198 13.5686V7.60181H76.7533L79.6555 12.243H79.6893L79.6555 11.0934V7.6028H80.4238V13.5696H79.6226L76.5871 8.70169H76.5533L76.5871 9.85228V13.5686H75.8198Z" fill="#0B0C0E" stroke="#0B0C0E" stroke-width="0.2"/>
  <path fill-rule="evenodd" clip-rule="evenodd" d="M107.031 30.477H108.888V18.0452H107.031V30.477ZM123.758 22.5233L121.63 27.9133H121.566L119.356 22.5233H117.356L120.67 30.0564L118.78 34.2471H120.717L125.824 22.5233H123.758ZM113.226 29.0649C112.619 29.0649 111.77 28.7616 111.77 28.0098C111.77 27.0501 112.827 26.6821 113.739 26.6821C114.554 26.6821 114.94 26.8582 115.435 27.0978C115.367 27.6371 115.106 28.1335 114.699 28.4951C114.293 28.8567 113.77 29.0591 113.226 29.0649ZM113.451 22.2518C112.106 22.2518 110.714 22.8435 110.138 24.1552L111.786 24.8424C112.138 24.1552 112.794 23.9314 113.483 23.9314C114.443 23.9314 115.419 24.5063 115.435 25.5296V25.6578C115.099 25.4669 114.378 25.1785 113.498 25.1785C111.721 25.1785 109.913 26.1541 109.913 27.9769C109.913 29.6407 111.37 30.7127 113.002 30.7127C114.25 30.7127 114.94 30.1528 115.371 29.4965H115.435V30.4571H117.229V25.6907C117.229 23.4829 115.579 22.2518 113.451 22.2518ZM101.974 24.0369H99.3322V19.7756H101.974C103.362 19.7756 104.15 20.9242 104.15 21.9057C104.15 22.8694 103.362 24.0369 101.974 24.0369ZM101.926 18.0452H97.4761V30.477H99.3322V25.7672H101.926C103.984 25.7672 106.007 24.2785 106.007 21.9057C106.007 19.5339 103.984 18.0452 101.926 18.0452ZM77.6608 29.0679C76.3779 29.0679 75.304 27.9938 75.304 26.52C75.304 25.0303 76.3779 23.9404 77.6608 23.9404C78.9267 23.9404 79.921 25.0303 79.921 26.52C79.921 27.9938 78.9267 29.0679 77.6608 29.0679ZM79.7926 23.2194H79.7289C79.3119 22.7232 78.5097 22.2747 77.5005 22.2747C75.3837 22.2747 73.4429 24.1333 73.4429 26.52C73.4429 28.8909 75.3837 30.7336 77.5005 30.7336C78.5097 30.7336 79.3119 30.2851 79.7289 29.7729H79.7926V30.3806C79.7926 31.9996 78.9267 32.8638 77.5324 32.8638C76.3938 32.8638 75.6882 32.0473 75.3996 31.3581L73.7803 32.0314C74.2451 33.1531 75.4792 34.5305 77.5324 34.5305C79.713 34.5305 81.5571 33.2486 81.5571 30.125V22.5302H79.7926V23.2194ZM82.84 30.477H84.6991V18.0452H82.84V30.477ZM87.441 26.3758C87.3933 24.7419 88.708 23.9086 89.6535 23.9086C90.3919 23.9086 91.0169 24.2775 91.2259 24.8056L87.441 26.3758ZM93.2134 24.9657C92.8601 24.021 91.7863 22.2747 89.5898 22.2747C87.4092 22.2747 85.5968 23.9891 85.5968 26.5041C85.5968 28.8749 87.3933 30.7336 89.7978 30.7336C91.7375 30.7336 92.8601 29.5482 93.3259 28.859L91.8828 27.8974C91.4011 28.6025 90.7442 29.0679 89.7978 29.0679C88.8523 29.0679 88.1785 28.6353 87.7466 27.786L93.4055 25.447L93.2134 24.9657ZM48.121 23.5724V25.3665H52.4174C52.29 26.3758 51.9526 27.1127 51.4401 27.6249C50.8141 28.2504 49.8358 28.9396 48.121 28.9396C45.4746 28.9396 43.4065 26.8084 43.4065 24.1651C43.4065 21.5219 45.4746 19.3907 48.121 19.3907C49.5481 19.3907 50.5902 19.9516 51.3595 20.6726L52.6264 19.4066C51.5516 18.3813 50.1254 17.5957 48.121 17.5957C44.4963 17.5957 41.4498 20.5443 41.4498 24.1651C41.4498 27.786 44.4963 30.7336 48.121 30.7336C50.0766 30.7336 51.5516 30.0922 52.706 28.8909C53.8924 27.7055 54.2616 26.0397 54.2616 24.6932C54.2616 24.2775 54.2298 23.8927 54.1651 23.5724H48.121ZM59.1463 29.0679C57.8644 29.0679 56.7577 28.0098 56.7577 26.5041C56.7577 24.9816 57.8644 23.9404 59.1463 23.9404C60.4291 23.9404 61.5358 24.9816 61.5358 26.5041C61.5358 28.0098 60.4291 29.0679 59.1463 29.0679ZM59.1463 22.2747C56.8054 22.2747 54.8976 24.0528 54.8976 26.5041C54.8976 28.9396 56.8054 30.7336 59.1463 30.7336C61.4881 30.7336 63.3959 28.9396 63.3959 26.5041C63.3959 24.0528 61.4881 22.2747 59.1463 22.2747ZM68.416 29.0679C67.1331 29.0679 66.0264 28.0098 66.0264 26.5041C66.0264 24.9816 67.1331 23.9404 68.416 23.9404C69.6988 23.9404 70.8045 24.9816 70.8045 26.5041C70.8045 28.0098 69.6988 29.0679 68.416 29.0679ZM68.416 22.2747C66.0751 22.2747 64.1673 24.0528 64.1673 26.5041C64.1673 28.9396 66.0751 30.7336 68.416 30.7336C70.7568 30.7336 72.6646 28.9396 72.6646 26.5041C72.6646 24.0528 70.7568 22.2747 68.416 22.2747Z" fill="#0B0C0E"/>
  <path fill-rule="evenodd" clip-rule="evenodd" d="M10.9907 8.1379C10.7011 8.4442 10.5299 8.91955 10.5299 9.53513V31.5288C10.5299 32.1453 10.7011 32.6197 10.9907 32.926L11.0633 32.9976L23.3944 20.6771V20.3868L11.0633 8.06531L10.9907 8.1379Z" fill="url(#paint0_linear_1_19251)"/>
  <path fill-rule="evenodd" clip-rule="evenodd" d="M23.3943 20.3856V20.676L27.5037 24.7851L27.5972 24.7324L32.467 21.9678C33.8573 21.1772 33.8573 19.8844 32.467 19.0948L27.5972 16.3302L27.5047 16.2775L23.3943 20.3856Z" fill="url(#paint1_linear_1_19251)"/>
  <path fill-rule="evenodd" clip-rule="evenodd" d="M10.9905 32.9255C11.4484 33.4108 12.2057 33.4705 13.0587 32.9862L27.5972 24.7321L23.3943 20.5315L10.9905 32.9255Z" fill="url(#paint2_linear_1_19251)"/>
  <path fill-rule="evenodd" clip-rule="evenodd" d="M10.9905 8.13762L23.3943 20.5317L27.5972 16.331L13.0587 8.07696C12.6586 7.84922 12.2794 7.74182 11.943 7.74182C11.5608 7.74182 11.2334 7.88005 10.9905 8.13762Z" fill="url(#paint3_linear_1_19251)"/>
  <defs>
    <linearGradient id="paint0_linear_1_19251" x1="16.9621" y1="8.06531" x2="16.9621" y2="32.9976" gradientUnits="userSpaceOnUse">
      <stop stop-color="#00A0FF"/>
      <stop offset="0.2657" stop-color="#00B2FF"/>
      <stop offset="1" stop-color="#00E3FF"/>
    </linearGradient>
    <linearGradient id="paint1_linear_1_19251" x1="33.5097" y1="20.5313" x2="23.3943" y2="20.5313" gradientUnits="userSpaceOnUse">
      <stop stop-color="#FFE000"/>
      <stop offset="1" stop-color="#FF9C00"/>
    </linearGradient>
    <linearGradient id="paint2_linear_1_19251" x1="19.2939" y1="20.5315" x2="19.2939" y2="33.3209" gradientUnits="userSpaceOnUse">
      <stop stop-color="#FF3A44"/>
      <stop offset="1" stop-color="#C31162"/>
    </linearGradient>
    <linearGradient id="paint3_linear_1_19251" x1="19.4197" y1="7.6459" x2="19.4197" y2="20.5636" gradientUnits="userSpaceOnUse">
      <stop stop-color="#32A071"/>
      <stop offset="1" stop-color="#00F076"/>
    </linearGradient>
  </defs>
</svg>